<svg width="600" height="600" viewBox="0 0 600 600">
  <circle cx="300" cy="300" r="300" fill="#cbc2bf" id="circle22"/>
  <path d="m 308,493 c 27,0 85,-18 85,-71 0,-36 -26,-70 -118,-108 -47,30 -61,62 -61,89 0,62 49,90 93,90 m 72,-314 c 0,-36 -30,-73 -80,-73 -49,0 -73,33 -73,58 0,46 37,59 99,89 16,-8 53.97982,-25.81628 53.97982,-72.81628 z m -70,354 c -91,0 -162,-51 -162,-125 0,-73 86,-115 86,-115 -21,-13 -76,-45 -76,-106 0,-99 99,-124 150,-124 108,0 138,88 138,111 0,50 -45,85 -75,98 0,0 84,33 84,129 0,87 -83,132 -145,132" id="path24" style="fill:#130c0e"/>
</svg>