<svg width="14" height="14" viewBox="0 0 600 600">
    <g transform="translate(-1230.5769,301.07188)">
        <g transform="matrix(6,0,0,6,6270.5769,-2191.0598)">
            <circle cx="-790" cy="365" r="50" fill="#0d0f0f"/>
        </g>
        <path d="m1704.2-155.4-75.9 44.5c37 57.4 55.4 110.4 55.4 159.1 0 39.9-11.8 71.9-35.4 95.9-23.6 24.1-55.3 36.1-95.2 36.1-66.7 0-142.3-34.8-226.9-104.3l60.6-59.9c57.9 52.6 112.4 78.8 163.5 78.8 18.5 0 31.2-3.4 38.3-10.2 7.1-6.8 10.6-19.5 10.6-37.9 0-37-11.2-69.6-33.6-97.8l-54 75.9V-182.4l192.6 27z" fill="#fff"/>
    </g>
</svg>
